<?xml version="1.0" standalone="no"?>
<!DOCTYPE svg PUBLIC "-//W3C//DTD SVG 20010904//EN"
 "http://www.w3.org/TR/2001/REC-SVG-20010904/DTD/svg10.dtd">
<svg version="1.0" xmlns="http://www.w3.org/2000/svg"
 width="500.000000pt" height="500.000000pt" viewBox="0 0 500.000000 500.000000"
 preserveAspectRatio="xMidYMid meet">
<metadata>
Created by potrace 1.11, written by Peter Selinger 2001-2013
</metadata>
<g transform="translate(0.000000,500.000000) scale(0.100000,-0.100000)"
fill="#000000" stroke="none">
<path d="M2330 4997 c-3 -3 -32 -8 -65 -11 -97 -10 -205 -27 -275 -42 -36 -8
-76 -17 -90 -20 -155 -30 -476 -161 -665 -272 -72 -41 -139 -85 -152 -98 -8
-8 -18 -14 -22 -14 -4 0 -16 -8 -27 -18 -10 -9 -37 -31 -60 -47 -94 -69 -224
-189 -324 -301 -94 -103 -190 -227 -190 -243 0 -5 -4 -11 -9 -13 -26 -9 -185
-295 -253 -453 -48 -112 -104 -286 -124 -385 -3 -14 -10 -45 -15 -70 -20 -85
-35 -185 -46 -295 -9 -95 -10 -361 0 -425 3 -25 9 -72 13 -105 18 -173 102
-490 169 -641 59 -130 151 -310 165 -324 3 -3 18 -26 33 -52 32 -55 156 -223
213 -288 73 -83 259 -265 329 -321 83 -67 238 -174 315 -219 112 -64 365 -180
425 -195 6 -1 17 -5 25 -8 84 -32 313 -88 420 -103 19 -2 49 -6 65 -9 88 -13
195 -20 325 -20 162 0 270 10 430 41 41 9 90 17 109 20 19 2 38 7 42 10 5 3
17 7 27 9 163 31 512 177 660 276 24 16 46 29 49 29 5 0 148 98 181 125 213
171 343 306 530 550 11 13 72 108 109 170 68 110 213 427 213 465 0 6 4 18 10
28 15 27 56 189 75 292 9 52 19 106 22 120 25 135 36 435 20 555 -4 33 -10 76
-12 95 -8 75 -15 126 -20 150 -2 14 -12 60 -20 102 -17 81 -82 296 -110 364
-9 21 -21 53 -28 69 -63 158 -211 407 -336 565 -162 205 -267 305 -546 518 -5
4 -28 19 -50 32 -22 13 -41 28 -43 32 -2 4 -8 8 -13 8 -5 0 -28 12 -50 26
-182 115 -507 240 -749 288 -107 21 -128 25 -190 32 -30 3 -71 9 -92 14 -39 8
-390 14 -398 7z"/>
</g>
</svg>
